# xmcd
#
# Track frame offsets:
#	150
#	19487
#	39595
#	63635
#	81765
#
# Disc length: 1458 seconds
#
# Revision: 1
# Processed by: cddbd v1.5.2PL0 Copyright (c) Steve Scherf et al.
# Submitted via: EasyCDDAExtractor 11.5.0.1
#
DISCID=3e05b005
DTITLE=Smooth - Mind Blowin' (Single)
DYEAR=1995
DGENRE=R&B
TTITLE0=Mind Blowin' (LP Version)
TTITLE1=Mind Blowin' (Kenny "Smooth" Illmatic Mix)
TTITLE2=Mind Blowin' (Chris Trevetts Remix)
TTITLE3=Mind Blowin' (Kenny "Smooth" Laid Back Remix)
TTITLE4=Mind Blowin' (Undercover Brother)
EXTD=
EXTT0=
EXTT1=
EXTT2=
EXTT3=
EXTT4=
PLAYORDER=
